<mxfile host="app.diagrams.net" modified="2024-07-01T09:26:32.499Z" agent="Mozilla/5.0 (Windows NT 10.0; Win64; x64) AppleWebKit/537.36 (KHTML, like Gecko) Chrome/126.0.0.0 Safari/537.36" etag="6Q1PUp44DW08JUeZTBaB" version="24.6.4" type="github">
  <diagram name="Page-1" id="8-Un9mP4CI7cs1p9Rqkq">
    <mxGraphModel dx="1485" dy="744" grid="1" gridSize="10" guides="1" tooltips="1" connect="1" arrows="1" fold="1" page="1" pageScale="1" pageWidth="827" pageHeight="1169" math="0" shadow="0">
      <root>
        <mxCell id="0" />
        <mxCell id="1" parent="0" />
        <mxCell id="-KCOtKO4u_WiJWK0Voqh-3" value="" style="rounded=0;whiteSpace=wrap;html=1;fillColor=#d5e8d4;strokeColor=#82b366;" vertex="1" parent="1">
          <mxGeometry x="440" y="150" width="2290" height="2110" as="geometry" />
        </mxCell>
        <mxCell id="-KCOtKO4u_WiJWK0Voqh-5" value="&lt;font style=&quot;font-size: 42px;&quot;&gt;zoo arcadia&lt;/font&gt;" style="text;strokeColor=none;fillColor=none;html=1;fontSize=24;fontStyle=1;verticalAlign=middle;align=center;" vertex="1" parent="1">
          <mxGeometry x="2410" y="230" width="270" height="40" as="geometry" />
        </mxCell>
        <mxCell id="-KCOtKO4u_WiJWK0Voqh-40" style="rounded=0;orthogonalLoop=1;jettySize=auto;html=1;entryX=-0.002;entryY=0.707;entryDx=0;entryDy=0;entryPerimeter=0;endArrow=none;endFill=0;" edge="1" parent="1">
          <mxGeometry relative="1" as="geometry">
            <mxPoint x="370" y="249.38" as="sourcePoint" />
            <mxPoint x="599.7000000000003" y="249.32999999999993" as="targetPoint" />
          </mxGeometry>
        </mxCell>
        <mxCell id="-KCOtKO4u_WiJWK0Voqh-15" value="&lt;font style=&quot;font-size: 20px;&quot;&gt;visiteur&lt;/font&gt;" style="shape=umlActor;verticalLabelPosition=bottom;verticalAlign=top;html=1;outlineConnect=0;" vertex="1" parent="1">
          <mxGeometry x="280" y="220" width="70" height="100" as="geometry" />
        </mxCell>
        <mxCell id="-KCOtKO4u_WiJWK0Voqh-19" value="&lt;font style=&quot;font-size: 20px;&quot;&gt;Administrateur&lt;/font&gt;" style="shape=umlActor;verticalLabelPosition=bottom;verticalAlign=top;html=1;outlineConnect=0;" vertex="1" parent="1">
          <mxGeometry x="275" y="420" width="80" height="125" as="geometry" />
        </mxCell>
        <mxCell id="-KCOtKO4u_WiJWK0Voqh-28" value="&lt;font style=&quot;font-size: 20px;&quot;&gt;employé&lt;/font&gt;" style="shape=umlActor;verticalLabelPosition=bottom;verticalAlign=top;html=1;outlineConnect=0;" vertex="1" parent="1">
          <mxGeometry x="272.5" y="670" width="85" height="170" as="geometry" />
        </mxCell>
        <mxCell id="-KCOtKO4u_WiJWK0Voqh-38" value="&lt;font style=&quot;font-size: 20px;&quot;&gt;&amp;nbsp;vétérinaire&lt;/font&gt;" style="shape=umlActor;verticalLabelPosition=bottom;verticalAlign=top;html=1;outlineConnect=0;" vertex="1" parent="1">
          <mxGeometry x="275" y="950" width="95" height="160" as="geometry" />
        </mxCell>
        <mxCell id="-KCOtKO4u_WiJWK0Voqh-39" value="&lt;font style=&quot;font-size: 15px;&quot;&gt;Laisser un commentaire&lt;/font&gt;&lt;div style=&quot;font-size: 15px;&quot;&gt;&lt;font style=&quot;font-size: 15px;&quot;&gt;pseudo+avis&lt;/font&gt;&lt;/div&gt;" style="ellipse;whiteSpace=wrap;html=1;" vertex="1" parent="1">
          <mxGeometry x="600" y="200" width="150" height="100" as="geometry" />
        </mxCell>
        <mxCell id="-KCOtKO4u_WiJWK0Voqh-41" value="" style="ellipse;whiteSpace=wrap;html=1;" vertex="1" parent="1">
          <mxGeometry x="615" y="330" width="120" height="80" as="geometry" />
        </mxCell>
      </root>
    </mxGraphModel>
  </diagram>
</mxfile>
